<svg width="204" height="209" viewBox="0 0 204 209" fill="none" xmlns="http://www.w3.org/2000/svg">
<g filter="url(#filter0_d_0_1902)">
<ellipse cx="102" cy="101.5" rx="99" ry="101.5" fill="#8C3A7F"/>
</g>
<ellipse cx="102" cy="97" rx="99" ry="97" fill="#A74C98"/>
<ellipse cx="102" cy="97" rx="99" ry="97" fill="url(#paint0_linear_0_1902)"/>
<circle cx="102" cy="99" r="76" fill="#BABFD4"/>
<ellipse cx="102" cy="103" rx="76" ry="72" fill="url(#paint1_linear_0_1902)"/>
<path fill-rule="evenodd" clip-rule="evenodd" d="M99.4439 89.9064C99.8677 86.8909 98.3711 84.0387 95.8868 82.5934L94.0339 67.5113C93.7169 64.9168 95.5599 62.5848 98.1305 62.2708C100.703 61.9531 103.054 63.7901 103.372 66.3642L106.975 95.7143C105.483 95.5045 104.295 95.3343 103.342 95.1978L103.341 95.1977L103.341 95.1976C99.52 94.6501 99.4838 94.6449 98.7555 94.805L99.4439 89.9064ZM89.5373 108.059C92.1056 108.42 94.4883 106.625 94.8493 104.056L96.8884 89.5472C97.2494 86.9789 95.4538 84.5962 92.8855 84.2352C90.3172 83.8743 87.9329 85.6696 87.5719 88.2379L85.5328 102.747C85.1718 105.315 86.969 107.698 89.5373 108.059ZM78.1395 107.803C80.3452 108.113 82.3893 106.571 82.6993 104.365L84.3676 92.4948C84.6774 90.2907 83.1374 88.2451 80.9317 87.9351C78.7275 87.6254 76.6818 89.1669 76.372 91.3711L74.7037 103.242C74.3937 105.447 75.9353 107.493 78.1395 107.803ZM132.376 71.7679C130.816 67.9177 125.328 67.826 123.684 71.6946L113.121 96.578C116.335 97.0296 118.729 98.4364 120.472 100.75L121.176 101.684L132.344 75.3695C132.835 74.2121 132.846 72.9334 132.376 71.7679ZM120.551 105.143C120.699 105.34 120.848 105.538 121.17 105.965C123.438 108.975 124.546 112.869 123.986 116.854L122.775 125.466C121.188 136.761 110.708 144.66 99.4121 143.073L90.1786 141.775C78.8832 140.187 70.9845 129.705 72.5719 118.41L73.9742 108.432C76.8963 111.424 81.8305 110.979 84.1805 107.513C87.7232 112.676 95.6479 111.235 97.2318 105.276C98.8427 107.813 101.514 109.658 104.716 110.108L110.583 110.932C110.837 111.55 110.971 112.194 111.001 112.812C100.934 113.327 92.4692 120.991 91.0492 131.095C90.95 131.801 91.4414 132.453 92.1474 132.553C92.8534 132.652 93.5055 132.16 93.6047 131.455C94.9033 122.215 102.905 115.298 112.22 115.365C112.866 115.369 113.417 114.894 113.507 114.254C113.866 111.7 112.891 109.268 112.241 108.73C112.201 108.7 112.17 108.674 112.137 108.651C111.855 108.454 111.441 108.447 105.075 107.552C100.689 106.936 97.6226 102.866 98.239 98.4802C98.347 97.7115 99.0512 97.2066 99.7894 97.3104L113.113 99.1829C115.238 99.4815 117.119 100.59 118.41 102.304C119.974 104.378 120.262 104.76 120.551 105.143Z" fill="#666B81"/>
<defs>
<filter id="filter0_d_0_1902" x="0" y="0" width="204" height="209" filterUnits="userSpaceOnUse" color-interpolation-filters="sRGB">
<feFlood flood-opacity="0" result="BackgroundImageFix"/>
<feColorMatrix in="SourceAlpha" type="matrix" values="0 0 0 0 0 0 0 0 0 0 0 0 0 0 0 0 0 0 127 0" result="hardAlpha"/>
<feOffset dy="3"/>
<feGaussianBlur stdDeviation="1.5"/>
<feColorMatrix type="matrix" values="0 0 0 0 0 0 0 0 0 0 0 0 0 0 0 0 0 0 0.196706 0"/>
<feBlend mode="normal" in2="BackgroundImageFix" result="effect1_dropShadow_0_1902"/>
<feBlend mode="normal" in="SourceGraphic" in2="effect1_dropShadow_0_1902" result="shape"/>
</filter>
<linearGradient id="paint0_linear_0_1902" x1="3" y1="0" x2="3" y2="194" gradientUnits="userSpaceOnUse">
<stop stop-color="white" stop-opacity="0.0966455"/>
<stop offset="1" stop-color="white" stop-opacity="0.01"/>
</linearGradient>
<linearGradient id="paint1_linear_0_1902" x1="176.74" y1="175" x2="176.74" y2="33.3868" gradientUnits="userSpaceOnUse">
<stop stop-color="#F3F3F3"/>
<stop offset="1" stop-color="#DADADA"/>
</linearGradient>
</defs>
</svg>
